<?xml version="1.0" standalone="no"?>
<!DOCTYPE svg PUBLIC "-//W3C//DTD SVG 20010904//EN"
 "http://www.w3.org/TR/2001/REC-SVG-20010904/DTD/svg10.dtd">
<svg version="1.0" xmlns="http://www.w3.org/2000/svg"
 width="1024.000000pt" height="1024.000000pt" viewBox="0 0 1024.000000 1024.000000"
 preserveAspectRatio="xMidYMid meet">
<metadata>
Created by potrace 1.14, written by Peter Selinger 2001-2017
</metadata>
<g transform="translate(0.000000,1024.000000) scale(0.100000,-0.100000)"
fill="#000000" stroke="none">
<path d="M4612 9828 c-6 -13 -13 -41 -14 -63 l-3 -40 -121 -5 c-149 -6 -162
-14 -166 -98 l-3 -56 -140 -1 c-101 0 -142 -3 -148 -12 -6 -9 -46 -13 -143
-13 l-134 0 -11 -27 c-6 -16 -8 -47 -5 -70 l6 -43 -49 0 c-59 0 -81 -21 -88
-83 l-5 -44 -131 -6 c-91 -4 -132 -10 -138 -19 -5 -7 -9 -34 -9 -59 l0 -47
-70 -7 c-39 -4 -73 -12 -77 -19 -4 -6 -10 -33 -13 -61 l-5 -50 -63 -5 c-73 -6
-82 -15 -82 -82 l0 -48 -63 0 c-76 0 -95 -12 -99 -65 -3 -39 -4 -40 -43 -43
-81 -5 -84 -7 -87 -65 l-3 -52 -58 -3 c-51 -3 -59 -6 -67 -28 -6 -14 -10 -45
-10 -70 l0 -44 -54 0 c-63 0 -69 -5 -76 -75 l-5 -50 -57 -3 c-31 -2 -61 -9
-67 -16 -6 -7 -12 -82 -13 -182 l-3 -169 -55 -3 c-66 -3 -80 -18 -80 -84 l0
-48 -42 0 c-78 0 -72 32 -78 -464 -3 -244 -8 -447 -11 -450 -3 -3 -37 -9 -75
-13 l-69 -8 -6 -110 c-4 -60 -7 -113 -8 -117 0 -5 -93 -8 -205 -8 -173 0 -207
-2 -220 -16 -13 -12 -16 -41 -16 -150 l0 -134 -26 -10 c-14 -6 -40 -10 -59
-10 -19 0 -36 -4 -39 -9 -4 -5 -9 -37 -12 -70 l-7 -61 -54 0 c-61 0 -67 -7
-78 -92 l-6 -48 -45 0 c-69 0 -81 -11 -89 -79 l-7 -58 -50 -6 c-62 -8 -77 -26
-78 -94 l0 -53 -40 0 c-23 0 -54 -7 -70 -15 l-30 -16 0 -167 c0 -92 -3 -184
-6 -204 -6 -34 -10 -38 -35 -38 -45 0 -69 -31 -69 -89 0 -43 -3 -50 -24 -55
-32 -8 -38 -34 -45 -216 l-6 -155 -47 -3 c-57 -4 -78 -27 -78 -88 l0 -42 -55
-7 c-86 -10 -85 -8 -85 -229 0 -140 3 -197 13 -210 8 -11 32 -19 70 -23 l57
-6 1 -41 c1 -47 -2 -100 -6 -104 -1 -1 -27 -5 -56 -9 -30 -3 -60 -10 -67 -16
-9 -7 -12 -91 -12 -356 0 -399 -3 -385 82 -395 51 -7 54 -8 65 -45 9 -27 11
-79 6 -168 -7 -148 -3 -156 70 -167 l45 -7 6 -51 c4 -29 4 -113 1 -187 -4
-104 -3 -140 7 -152 8 -10 38 -18 83 -23 38 -4 71 -9 74 -11 2 -3 6 -28 9 -57
6 -67 21 -84 82 -92 68 -9 73 -26 64 -242 -7 -166 -6 -172 15 -193 16 -16 33
-21 78 -21 32 0 81 -3 110 -6 51 -7 52 -7 58 -45 10 -58 32 -78 95 -87 l55 -7
7 -60 c5 -38 14 -65 25 -72 11 -9 54 -13 124 -13 58 0 121 -3 138 -6 30 -6 31
-9 31 -54 0 -78 15 -88 142 -96 121 -8 112 0 124 -109 4 -33 11 -66 17 -73 7
-8 50 -12 151 -12 77 0 165 -3 194 -6 l52 -7 0 -36 c0 -20 7 -47 16 -59 14
-20 23 -22 118 -22 118 0 123 3 132 74 8 52 -4 48 156 50 43 1 82 6 88 12 6 7
16 31 21 55 11 48 22 59 60 59 40 0 60 22 70 75 5 26 11 50 13 52 1 2 45 7 96
12 104 10 120 20 120 77 0 30 3 34 38 40 63 11 70 19 78 83 l6 59 45 7 c58 8
79 31 87 92 6 49 8 51 44 57 20 3 49 6 65 6 27 0 27 0 27 70 0 52 3 70 13 70
19 0 27 -194 27 -686 0 -298 3 -403 12 -412 7 -7 40 -12 79 -12 36 0 86 -3
111 -6 47 -7 50 -12 72 -115 6 -29 28 -39 87 -39 36 0 36 -1 43 -47 10 -72 25
-83 120 -83 125 0 156 -8 162 -39 3 -15 14 -38 24 -51 l19 -25 223 0 c123 -1
242 -5 265 -9 44 -9 46 -12 58 -76 14 -68 18 -70 210 -70 196 0 198 1 209 81
6 44 9 47 49 59 29 9 108 12 257 11 248 -1 260 2 274 66 9 39 11 41 54 47 25
3 79 6 121 6 42 0 82 4 89 9 8 4 19 32 25 62 l12 54 52 5 c29 3 58 11 64 17 7
7 14 35 17 63 4 48 8 53 38 66 20 8 69 14 123 14 79 0 92 2 101 19 6 13 10
205 10 555 0 470 2 536 15 536 11 0 15 -12 15 -44 0 -58 23 -85 85 -101 44
-11 50 -15 53 -41 5 -54 24 -84 60 -99 19 -8 43 -15 53 -15 11 0 19 -7 19 -17
0 -23 18 -84 29 -102 5 -8 31 -17 58 -20 45 -6 48 -8 51 -36 6 -64 57 -93 163
-95 34 0 36 -2 48 -49 15 -58 33 -77 82 -86 31 -6 38 -12 48 -45 6 -21 17 -42
24 -48 6 -5 65 -15 129 -22 l117 -12 6 -40 c12 -66 31 -78 133 -78 48 0 93 4
101 9 7 5 19 31 26 57 9 37 18 50 36 55 13 4 92 7 176 8 169 1 183 6 183 65 0
18 3 54 6 80 l7 46 107 0 c74 0 111 4 117 13 6 6 13 38 16 71 3 32 9 61 12 65
4 3 68 8 143 11 l137 5 6 64 c4 37 12 67 20 72 8 5 56 9 107 9 51 0 102 4 112
10 13 7 21 26 25 65 l7 55 42 0 c23 0 52 7 64 16 21 15 22 21 22 192 0 97 3
193 6 213 6 35 8 36 63 45 l56 9 13 64 c7 36 15 67 18 70 3 3 50 8 105 11 74
4 102 9 109 20 5 8 10 88 10 176 0 217 1 220 56 229 72 10 74 15 73 196 0 87
2 163 5 168 3 4 29 11 57 14 29 4 57 11 63 17 13 13 21 663 8 712 -8 31 -12
34 -65 42 -50 8 -57 12 -62 37 -4 15 -3 48 0 72 l7 45 54 4 c30 3 57 8 61 12
12 12 10 423 -2 435 -5 5 -31 11 -57 13 -26 2 -50 7 -54 10 -3 4 -7 29 -8 57
-1 28 -7 56 -13 62 -7 7 -35 14 -62 17 l-51 5 0 166 c0 179 -3 191 -49 191
-62 0 -71 9 -71 64 0 28 -4 57 -9 64 -4 8 -33 17 -62 20 -32 4 -55 12 -55 20
-1 6 -2 96 -3 200 -1 103 -5 194 -11 202 -5 8 -31 17 -62 20 l-53 5 -5 57 c-3
31 -10 62 -16 68 -6 6 -36 14 -66 17 l-55 6 -7 60 c-3 34 -12 64 -19 69 -6 4
-33 8 -59 8 l-48 0 0 53 c0 70 -13 86 -77 93 l-52 7 -8 61 -8 61 -67 9 -68 9
0 137 c0 93 -4 141 -12 153 -11 14 -38 17 -198 19 l-185 3 -5 115 -5 115 -65
3 c-36 2 -68 8 -72 15 -4 7 -8 210 -8 453 0 329 -3 443 -12 452 -7 7 -33 12
-60 12 l-47 0 -3 63 -3 62 -60 5 -60 5 -3 170 c-3 194 -3 195 -83 195 l-47 0
-4 55 c-3 30 -8 58 -12 62 -4 5 -33 10 -64 13 l-57 5 -5 65 -5 65 -62 3 -63 3
0 40 c0 67 -12 79 -80 79 l-60 0 0 44 c0 25 -5 48 -12 52 -6 4 -44 9 -85 12
l-73 5 0 46 c0 66 -10 75 -81 81 l-62 5 -1 57 c-1 31 -4 59 -7 63 -4 3 -37 7
-75 8 l-69 2 -3 61 c-4 75 0 74 -169 74 l-123 0 0 48 c0 26 -4 53 -9 61 -5 7
-35 16 -67 20 l-59 6 -5 65 -5 65 -140 3 c-91 2 -142 7 -146 14 -5 7 -57 13
-148 16 l-141 5 0 54 c0 93 0 93 -155 93 l-135 0 0 49 c0 76 -4 81 -67 81 -67
0 -81 -12 -85 -76 l-3 -49 -300 -3 c-165 -2 -324 0 -352 3 l-53 6 0 54 c0 60
-6 65 -79 65 -39 0 -50 -4 -59 -22z m996 -440 l3 -68 -76 0 -75 0 0 70 0 71
73 -3 72 -3 3 -67z m-1596 -105 c2 -5 2 -38 0 -75 l-4 -68 -69 0 -69 0 0 75 0
75 69 0 c39 0 71 -3 73 -7z m2326 -70 l3 -73 -71 0 -70 0 0 68 c0 38 3 72 7
76 4 4 34 6 68 4 l60 -3 3 -72z m-2038 -273 l0 -70 -69 0 c-39 0 -71 3 -73 8
-2 4 -2 35 0 70 l4 62 69 0 69 0 0 -70z m1752 0 l-4 -70 -69 0 -69 0 0 63 c0
35 3 67 7 70 3 4 36 7 72 7 l66 0 -3 -70z m-2184 -215 l-3 -50 -63 -3 -62 -3
6 43 c9 66 8 65 69 64 l56 0 -3 -51z m2598 47 c-10 -2 -14 -7 -9 -11 6 -3 14
-21 18 -38 5 -28 4 -33 -12 -33 -15 0 -16 -2 -3 -10 11 -7 -3 -10 -47 -10
l-63 0 0 48 c0 27 2 51 5 54 3 2 33 5 68 4 34 0 53 -2 43 -4z m609 -222 c3 -5
1 -10 -4 -10 -6 0 -11 5 -11 10 0 6 2 10 4 10 3 0 8 -4 11 -10z m-2924 -100
c3 -36 4 -68 2 -72 -2 -5 -35 -8 -74 -8 l-69 0 0 69 c0 79 1 80 85 78 l50 -2
6 -65z m2051 -1 c1 -33 1 -63 -1 -65 -2 -2 -37 -4 -78 -4 l-73 0 0 58 c0 32 3
62 7 65 3 4 37 7 74 7 l67 0 4 -61z m-3032 -69 c0 -5 -22 -10 -49 -10 -46 0
-48 -1 -43 -25 2 -14 11 -25 18 -25 8 0 14 -9 14 -20 0 -16 -7 -20 -32 -21
-31 -1 -31 -1 -8 -8 l25 -7 -22 -8 c-36 -12 -43 1 -43 70 l0 64 70 0 c40 0 70
-4 70 -10z m4005 1 c3 -6 -10 -7 -32 -4 -50 8 -55 13 -10 13 20 0 38 -4 42 -9z
m-437 -53 l-2 -53 -3 48 -4 47 -47 0 c-28 0 -42 -4 -34 -8 16 -10 5 -42 -14
-42 -15 0 -18 18 -8 44 5 12 20 16 60 16 l54 0 -2 -52z m438 -56 c-13 -13 -17
9 -10 50 l9 43 3 -44 c2 -23 1 -46 -2 -49z m-3747 -18 l32 -7 -3 -66 -3 -66
-67 -3 -66 -3 -4 66 c-1 36 -1 70 0 75 4 11 64 13 111 4z m1319 -63 c2 -45 -1
-67 -10 -72 -7 -5 -43 -9 -79 -9 -76 0 -78 2 -71 98 l4 53 76 -3 77 -3 3 -64z
m870 15 c2 -27 1 -60 -3 -73 -5 -23 -9 -24 -78 -21 l-72 3 -3 59 c-5 87 -4 87
80 84 l73 -3 3 -49z m1277 -16 l0 -65 -72 -3 -73 -3 0 65 c0 74 1 75 90 73
l55 -2 0 -65z m-948 -216 c-3 -3 -12 -4 -19 -1 -8 3 -5 6 6 6 11 1 17 -2 13
-5z m34 -54 c56 0 59 -1 59 -25 0 -22 4 -25 35 -25 l35 0 0 -51 c0 -84 -6 -89
-110 -89 l-90 0 1 118 c1 64 4 107 6 95 4 -21 10 -23 64 -23z m-3021 -130 l0
-70 -60 0 -60 0 0 70 0 70 60 0 60 0 0 -70z m1142 11 l-4 -60 54 -4 53 -3 -57
-2 -58 -2 0 65 c0 36 3 65 8 65 4 0 5 -27 4 -59z m3313 -11 l0 -65 -67 -3 -68
-3 0 64 c0 35 2 66 5 69 3 3 34 5 68 4 l62 -1 0 -65z m-1737 -227 c-46 -4 -47
-5 -51 -41 l-4 -37 -1 43 -2 42 53 -2 52 -2 -47 -3z m69 -15 c-3 -8 -6 -5 -6
6 -1 11 2 17 5 13 3 -3 4 -12 1 -19z m-1877 -173 l0 -65 -65 0 -65 0 0 65 0
65 65 0 65 0 0 -65z m2616 49 c-3 -9 -6 -38 -6 -65 l0 -49 -65 0 -65 0 0 58
c0 32 3 62 7 65 3 4 35 7 71 7 54 0 63 -2 58 -16z m-2663 -271 c-13 -2 -33 -2
-45 0 -13 2 -3 4 22 4 25 0 35 -2 23 -4z m317 -3 c0 -5 -4 -10 -10 -10 -5 0
-10 5 -10 10 0 6 5 10 10 10 6 0 10 -4 10 -10z m-388 -95 c3 -14 1 -25 -3 -25
-5 0 -9 11 -9 25 0 14 2 25 4 25 2 0 6 -11 8 -25z m685 -127 c-3 -8 -6 -5 -6
6 -1 11 2 17 5 13 3 -3 4 -12 1 -19z m-297 -135 l0 -68 -52 5 -53 5 42 3 c47
3 58 21 51 78 -3 27 -6 29 -48 29 l-45 0 -6 -50 -6 -50 0 58 0 57 59 0 58 0 0
-67z m1937 55 c0 -7 1 -34 1 -60 2 -43 4 -47 30 -51 22 -3 20 -4 -10 -6 l-38
-1 0 58 c0 32 3 62 7 65 9 10 11 9 10 -5z m2283 -302 c0 -3 -4 -8 -10 -11 -5
-3 -10 -1 -10 4 0 6 5 11 10 11 6 0 10 -2 10 -4z m170 -86 c0 -5 -2 -10 -4
-10 -3 0 -8 5 -11 10 -3 6 -1 10 4 10 6 0 11 -4 11 -10z m-80 -32 c0 -10 -79
-9 -104 1 -12 4 5 7 42 7 34 -1 62 -4 62 -8z m148 -155 c-21 -2 -57 -2 -80 0
-24 2 -7 4 37 4 44 0 63 -2 43 -4z m-7174 -86 c10 -79 4 -87 -65 -87 l-59 0 0
70 0 70 59 0 59 0 6 -53z m436 -17 l0 -60 -59 0 -59 0 -4 60 -3 60 63 0 62 0
0 -60z m6590 45 c0 -9 -9 -15 -25 -15 -14 0 -25 5 -25 11 0 6 -10 9 -22 7 -17
-2 -24 -11 -26 -32 -2 -16 1 -33 6 -38 14 -14 80 1 85 21 3 9 5 1 6 -16 l1
-33 -61 0 c-59 0 -61 1 -55 23 3 12 6 37 6 55 l0 32 55 0 c42 0 55 -3 55 -15z
m410 -45 l0 -60 -65 0 -65 0 0 60 0 60 65 0 65 0 0 -60z m-280 -296 l0 -64
-65 0 -65 0 0 63 c0 35 2 66 4 68 2 2 32 2 65 1 l61 -4 0 -64z m-6872 4 l-3
-62 -60 1 -60 1 -3 61 -3 61 66 0 66 0 -3 -62z m2192 -108 l0 -60 55 0 55 0 0
-65 0 -65 -135 0 -135 0 0 125 0 125 80 0 80 0 0 -60z m2570 -65 l0 -125 -135
0 -135 0 0 64 0 65 53 3 52 3 3 58 3 57 79 0 80 0 0 -125z m-711 -302 l-2
-148 139 -5 139 -5 3 -67 3 -68 42 -2 c37 -1 38 -2 10 -5 l-33 -4 0 -60 0 -59
48 0 c58 0 72 12 72 62 0 23 5 38 12 38 20 0 -5 18 -32 23 -14 2 84 5 217 6
l242 1 3 -77 3 -78 68 -3 67 -3 0 75 0 75 58 3 57 3 3 68 3 67 64 0 65 0 0
-69 0 -70 43 -3 42 -3 3 -57 c2 -35 -1 -58 -7 -58 -6 0 -8 -7 -5 -15 5 -12 -2
-15 -30 -15 l-36 0 0 -70 0 -69 -62 -3 -63 -3 -6 -195 c-4 -107 -7 -204 -8
-216 -1 -18 -9 -22 -57 -27 -31 -3 -59 -9 -63 -12 -3 -4 -8 -60 -10 -126 l-3
-119 -64 0 -64 0 0 -53 0 -52 -57 -2 c-82 -1 -85 -2 -78 -13 3 -5 35 -8 70 -7
l65 2 2 -80 c1 -44 1 -128 1 -187 l-1 -108 69 0 69 0 0 -225 0 -225 -70 0 -70
0 0 -75 0 -75 -65 0 -64 0 -3 73 -3 72 -64 3 c-44 2 -67 -1 -73 -10 -5 -7 -7
-40 -6 -73 l2 -60 -72 -3 -72 -3 0 -74 0 -75 -75 0 -75 0 0 75 0 75 -75 0 -75
0 0 -75 0 -75 -145 0 -145 0 0 81 0 81 -140 -4 -140 -3 0 73 0 72 70 0 70 0 0
70 0 69 73 3 72 3 5 75 5 75 68 3 68 3 -2 107 -2 107 72 3 71 3 0 149 0 150
-69 0 -69 0 -7 140 -8 140 -68 0 -69 0 0 70 0 70 -75 0 c-69 0 -76 2 -85 23
-8 21 -9 21 -9 1 -1 -19 -8 -22 -83 -26 -46 -3 -235 -3 -420 -1 l-338 5 0 -71
0 -70 -72 -3 -73 -3 -3 -137 -3 -138 -69 0 -70 0 0 -150 0 -150 70 0 70 0 0
-110 0 -110 70 0 70 0 0 -75 0 -75 53 0 c94 0 97 -2 97 -81 l0 -69 76 0 75 0
-6 -67 c-3 -37 -7 -69 -9 -70 -2 -2 -66 -5 -142 -6 l-139 -2 -3 -77 -3 -78
-144 0 -145 0 0 75 0 75 -70 0 -70 0 0 -75 0 -75 -75 0 -75 0 0 75 0 75 -70 0
-69 0 -3 73 -3 72 -72 0 c-43 0 -72 -4 -72 -10 1 -5 1 -38 0 -72 l-1 -63 -60
0 -60 0 0 75 0 75 -75 0 -75 0 2 223 3 222 68 3 67 3 0 82 c0 45 3 126 7 180
l6 97 58 0 58 0 4 -37 c3 -31 4 -29 5 15 l2 52 -65 0 -64 0 -3 57 -3 57 -62
-3 -63 -2 0 131 0 132 -64 -4 -63 -4 -7 141 c-3 77 -6 175 -6 218 l0 77 -65 0
-65 0 0 75 0 75 -49 0 c-28 0 -51 3 -53 8 -2 4 -2 35 0 70 l4 62 49 0 49 0 0
74 0 75 44 6 c76 12 80 9 86 -70 l5 -70 50 -1 c28 0 55 -1 62 -2 8 -1 13 -27
15 -74 l3 -73 40 0 c40 0 40 0 43 40 1 22 4 58 7 80 l5 40 303 0 302 0 -3 50
c-4 78 -2 79 153 85 l136 5 0 148 0 147 655 0 655 0 -2 -147z m-1599 -40 c0
-79 -5 -85 -76 -81 l-59 3 -3 54 c-5 79 -2 81 73 81 l65 0 0 -57z m2020 -13
l0 -70 -65 0 -65 0 0 70 0 70 65 0 65 0 0 -70z m-3751 -190 l2 -70 -64 0 -64
0 -7 53 c-11 92 -14 87 63 87 l68 0 2 -70z m5496 60 c3 -6 -6 -11 -22 -11
l-28 -2 28 -4 c26 -4 27 -7 27 -64 l0 -59 -65 0 -65 0 0 75 0 75 59 0 c33 0
63 -4 66 -10z m-5905 -160 l0 -60 70 0 70 0 0 -70 0 -70 -70 0 -70 0 0 60 0
59 -67 3 -68 3 -3 54 c-5 79 -2 81 73 81 l65 0 0 -60z m6305 -10 l0 -65 -67
-3 -68 -3 0 -59 0 -60 -70 0 -71 0 3 68 3 67 62 3 62 3 7 60 7 60 66 -3 66 -3
0 -65z m-7037 -52 l-3 -83 -67 -3 -68 -3 0 79 c0 43 3 82 7 85 3 4 35 7 70 7
l64 0 -3 -82z m7720 0 l3 -78 -61 0 c-33 0 -63 0 -67 0 -15 1 -23 55 -16 108
l6 53 66 -3 66 -3 3 -77z m-6541 66 c-3 -3 -12 -4 -19 -1 -8 3 -5 6 6 6 11 1
17 -2 13 -5z m5313 -2 c0 -4 -17 -6 -37 -4 -65 6 -70 10 -15 11 28 0 52 -3 52
-7z m-109 -109 c-9 -16 -10 -16 -11 3 0 12 3 37 8 55 l7 34 3 -37 c2 -21 -1
-46 -7 -55z m-6391 -123 l0 -70 -65 0 -64 0 1 70 2 70 63 0 63 0 0 -70z m7720
-4 c0 -65 -2 -74 -17 -71 -10 2 -37 4 -60 4 l-43 1 0 70 0 70 60 0 60 0 0 -74z
m-420 -166 l0 -70 -65 0 -65 0 0 70 0 70 65 0 65 0 0 -70z m-6860 -5 l0 -65
-65 0 -65 0 0 65 0 65 65 0 65 0 0 -65z m-647 -42 c-7 -2 -19 -2 -25 0 -7 3
-2 5 12 5 14 0 19 -2 13 -5z m-120 -20 c-13 -2 -35 -2 -50 0 -16 2 -5 4 22 4
28 0 40 -2 28 -4z m7775 -80 l3 -73 -76 0 -75 0 0 69 0 70 53 4 c97 7 92 11
95 -70z m-8168 -8 l0 -65 -58 0 -57 0 0 65 0 65 58 0 57 0 0 -65z m9198 -2 l3
-63 -56 0 -55 0 0 66 0 65 53 -3 52 -3 3 -62z m-4300 -315 l3 -67 47 -3 c47
-3 47 -3 45 -38 -1 -19 -6 -36 -12 -38 -6 -2 -9 -7 -6 -12 2 -4 -3 -14 -13
-23 -20 -18 -40 -19 -538 -18 l-312 1 -16 40 c-9 22 -16 51 -16 63 0 21 4 23
48 23 l47 -1 3 73 3 73 357 -3 357 -3 3 -67z m-4170 -40 l3 -68 -63 0 -63 0
-1 64 -2 65 42 4 c83 8 81 9 84 -65z m7704 -8 l-4 -70 -59 0 -59 0 0 70 0 70
63 0 62 0 -3 -70z m-1089 -6 l37 -7 0 -68 0 -69 -75 0 -75 0 0 75 0 75 38 0
c20 0 54 -3 75 -6z m-5473 -76 l-5 -73 -67 -2 -68 -2 0 75 0 74 73 0 72 0 -5
-72z m6422 -210 l3 -48 -50 2 -50 1 43 4 42 4 1 57 c1 63 6 53 11 -20z m-7469
-45 c-13 -2 -33 -2 -45 0 -13 2 -3 4 22 4 25 0 35 -2 23 -4z m1045 -190 l-3
-68 -62 -2 -63 -1 0 69 0 69 65 0 66 0 -3 -67z m5492 -8 l0 -66 -62 3 c-61 3
-63 4 -66 32 -2 16 -1 44 3 63 l6 33 59 0 60 0 0 -65z m-5962 -442 l-58 -4 0
-85 c0 -98 8 -112 63 -112 l36 0 4 82 c3 80 3 80 5 -21 l2 -103 -42 -1 c-24 0
-51 -2 -60 -4 -16 -3 -18 8 -18 126 l0 129 63 -2 62 -2 -57 -3z m6329 0 c-20
-2 -52 -2 -70 0 -17 2 0 4 38 4 39 0 53 -2 32 -4z m-440 -160 l-39 -4 4 -65
c2 -35 0 -64 -4 -64 -5 0 -8 32 -8 70 l0 70 43 -2 42 -1 -38 -4z m30 -129 c-3
-3 -12 -4 -19 -1 -8 3 -5 6 6 6 11 1 17 -2 13 -5z m-5317 -81 l0 -58 -60 3
-60 4 0 54 0 54 60 0 60 0 0 -57z m1177 -45 c-2 -13 -4 -5 -4 17 -1 22 1 32 4
23 2 -10 2 -28 0 -40z m3981 -5 c-10 -2 -26 -2 -35 0 -10 3 -2 5 17 5 19 0 27
-2 18 -5z m-1958 -222 l0 -60 73 -3 72 -3 0 -55 0 -55 -72 -3 -73 -3 0 -65 0
-66 -72 4 -73 3 -3 -68 -3 -68 -77 3 -77 3 -3 68 -3 67 -87 1 c-48 1 -109 3
-137 6 -104 8 -452 -1 -464 -13 -3 -2 -5 -31 -5 -64 l-1 -60 -82 0 -83 0 0 65
0 65 -70 0 -70 0 0 60 0 60 -75 0 -75 0 0 50 c0 45 3 52 26 60 14 6 48 10 75
10 l49 0 0 58 0 59 655 2 655 2 0 -60z m373 42 c-13 -2 -35 -2 -50 0 -16 2 -5
4 22 4 28 0 40 -2 28 -4z m-15 -86 l37 -4 -42 -1 c-41 -2 -43 -1 -42 26 1 22
2 23 6 5 3 -17 13 -23 41 -26z m-1260 -384 c-15 -2 -42 -2 -60 0 -18 2 -6 4
27 4 33 0 48 -2 33 -4z"/>
<path d="M1758 6188 c4 -26 8 -28 48 -28 40 0 44 2 44 24 0 22 -5 24 -48 28
-47 3 -48 3 -44 -24z"/>
<path d="M4077 5083 c-4 -3 -7 -23 -7 -44 0 -33 -3 -38 -27 -42 -16 -3 -1 -4
32 -3 l60 1 3 48 c3 46 2 47 -26 47 -16 0 -32 -3 -35 -7z"/>
<path d="M3467 4814 c-4 -4 -7 -36 -7 -71 l0 -63 65 0 66 0 -3 68 -3 67 -55 3
c-31 2 -59 0 -63 -4z"/>
<path d="M6624 4806 c-3 -7 -4 -40 -2 -72 l3 -59 50 -1 c78 -1 85 6 85 81 l0
65 -65 0 c-46 0 -67 -4 -71 -14z"/>
<path d="M3880 4560 l0 -130 65 0 65 0 0 130 0 130 -65 0 -65 0 0 -130z"/>
<path d="M6200 4566 l0 -123 57 -6 c32 -3 62 -2 66 2 4 4 11 63 14 129 l6 122
-71 0 -72 0 0 -124z"/>
<path d="M5395 4530 l-50 -7 58 -1 c37 -1 56 2 52 8 -3 6 -7 9 -8 8 -1 0 -24
-4 -52 -8z"/>
<path d="M4758 4523 c7 -3 16 -2 19 1 4 3 -2 6 -13 5 -11 0 -14 -3 -6 -6z"/>
<path d="M5441 4464 c0 -11 3 -14 6 -6 3 7 2 16 -1 19 -3 4 -6 -2 -5 -13z"/>
<path d="M4001 4318 l-1 -38 -67 -2 -68 -2 70 -5 c67 -6 70 -5 73 17 2 12 1
32 -1 45 -3 13 -5 7 -6 -15z"/>
<path d="M3737 4263 c-4 -3 -7 -37 -7 -75 l0 -68 65 0 65 0 0 75 0 75 -58 0
c-32 0 -62 -3 -65 -7z"/>
<path d="M6350 4196 l0 -76 63 0 62 0 -2 72 -1 73 -61 3 -61 3 0 -75z"/>
<path d="M3720 3871 c0 -12 -8 -21 -22 -24 -20 -4 -19 -4 5 -6 23 -1 27 3 27
24 0 14 -2 25 -5 25 -3 0 -5 -9 -5 -19z"/>
<path d="M4738 3133 c7 -3 16 -2 19 1 4 3 -2 6 -13 5 -11 0 -14 -3 -6 -6z"/>
<path d="M8892 4820 c0 -14 2 -19 5 -12 2 6 2 18 0 25 -3 6 -5 1 -5 -13z"/>
<path d="M530 4508 c0 -36 4 -35 14 5 4 16 2 27 -4 27 -5 0 -10 -14 -10 -32z"/>
<path d="M510 4460 c0 -5 5 -10 10 -10 6 0 10 5 10 10 0 6 -4 10 -10 10 -5 0
-10 -4 -10 -10z"/>
<path d="M5323 4180 c0 -36 2 -50 4 -32 2 17 2 47 0 65 -2 17 -4 3 -4 -33z"/>
<path d="M5133 4103 c9 -2 25 -2 35 0 9 3 1 5 -18 5 -19 0 -27 -2 -17 -5z"/>
<path d="M1928 2943 c6 -2 18 -2 25 0 6 3 1 5 -13 5 -14 0 -19 -2 -12 -5z"/>
</g>
</svg>
